<svg xmlns="http://www.w3.org/2000/svg" width="15.619" height="15.616" viewBox="0 0 15.619 15.616">
  <path id="Icon_awesome-instagram" data-name="Icon awesome-instagram" d="M7.806,6.042a4,4,0,1,0,4,4A4,4,0,0,0,7.806,6.042Zm0,6.607a2.6,2.6,0,1,1,2.6-2.6,2.608,2.608,0,0,1-2.6,2.6Zm5.1-6.77a.934.934,0,1,1-.934-.934A.932.932,0,0,1,12.907,5.878Zm2.652.948A4.621,4.621,0,0,0,14.3,3.554a4.652,4.652,0,0,0-3.272-1.261c-1.289-.073-5.154-.073-6.443,0A4.645,4.645,0,0,0,1.311,3.55,4.636,4.636,0,0,0,.05,6.822c-.073,1.289-.073,5.154,0,6.443a4.621,4.621,0,0,0,1.261,3.272A4.658,4.658,0,0,0,4.583,17.8c1.289.073,5.154.073,6.443,0A4.621,4.621,0,0,0,14.3,16.537a4.652,4.652,0,0,0,1.261-3.272c.073-1.289.073-5.15,0-6.439Zm-1.666,7.823a2.635,2.635,0,0,1-1.484,1.484,17.21,17.21,0,0,1-4.6.314,17.344,17.344,0,0,1-4.6-.314,2.635,2.635,0,0,1-1.484-1.484,17.21,17.21,0,0,1-.314-4.6,17.344,17.344,0,0,1,.314-4.6A2.635,2.635,0,0,1,3.2,3.958a17.21,17.21,0,0,1,4.6-.314,17.344,17.344,0,0,1,4.6.314,2.635,2.635,0,0,1,1.484,1.484,17.21,17.21,0,0,1,.314,4.6A17.2,17.2,0,0,1,13.893,14.648Z" transform="translate(0.005 -2.238)" fill="#4C2D70"/>
</svg>
