<svg xmlns="http://www.w3.org/2000/svg" width="15.61" height="15.61" viewBox="0 0 15.61 15.61">
  <path id="Icon_awesome-linkedin" data-name="Icon awesome-linkedin" d="M14.5,2.25H1.112A1.12,1.12,0,0,0,0,3.375V16.735A1.12,1.12,0,0,0,1.112,17.86H14.5a1.123,1.123,0,0,0,1.115-1.125V3.375A1.123,1.123,0,0,0,14.5,2.25ZM4.718,15.63H2.4V8.181H4.721v7.45ZM3.561,7.163A1.342,1.342,0,1,1,4.9,5.822,1.342,1.342,0,0,1,3.561,7.163Zm9.83,8.467H11.077V12.006c0-.864-.017-1.976-1.2-1.976-1.206,0-1.39.941-1.39,1.913V15.63H6.171V8.181h2.22V9.2h.031A2.437,2.437,0,0,1,10.614,8c2.342,0,2.777,1.544,2.777,3.551Z" transform="translate(0 -2.25)" fill="#4082F2"/>
</svg>
