<svg xmlns="http://www.w3.org/2000/svg" width="17.253" height="16.474" viewBox="0 0 17.253 16.474"><defs><style>.a{fill:#007bff;}</style></defs><path class="a" d="M13.555,16.474V10.528c0-1.494-.536-2.514-1.874-2.514a2.02,2.02,0,0,0-1.9,1.352,2.481,2.481,0,0,0-.122.9v6.207h-3.7s.049-10.073,0-11.115h3.7V6.933A3.669,3.669,0,0,1,12.994,5.1c2.433,0,4.259,1.586,4.259,5v6.373Zm-13.336,0V5.359h3.7V16.474ZM2.043,3.842A1.926,1.926,0,1,1,2.092,0a1.927,1.927,0,1,1-.024,3.842Z" transform="translate(0)"/></svg>