<svg xmlns="http://www.w3.org/2000/svg" xmlns:xlink="http://www.w3.org/1999/xlink" width="66" height="65" viewBox="0 0 66 65">
  <defs>
    <filter id="Ellipse_103" x="0" y="0" width="66" height="65" filterUnits="userSpaceOnUse">
      <feOffset dy="3" input="SourceAlpha"/>
      <feGaussianBlur stdDeviation="3" result="blur"/>
      <feFlood flood-opacity="0.071"/>
      <feComposite operator="in" in2="blur"/>
      <feComposite in="SourceGraphic"/>
    </filter>
  </defs>
  <g id="Group_2482" data-name="Group 2482" transform="translate(-250.207 -146.515)">
    <g transform="matrix(1, 0, 0, 1, 250.21, 146.51)" filter="url(#Ellipse_103)">
      <ellipse id="Ellipse_103-2" data-name="Ellipse 103" cx="24" cy="23.5" rx="24" ry="23.5" transform="translate(9 6)" fill="#fff"/>
    </g>
    <g id="Group_94" data-name="Group 94" transform="translate(279.133 169.823)">
      <path id="Path_454" data-name="Path 454" d="M40.142,44.694a1.385,1.385,0,0,0,.636.141,1.173,1.173,0,0,0,.742-.247l7.133-4.873a1.355,1.355,0,0,0,.565-1.095,1.3,1.3,0,0,0-.6-1.095l-7.133-4.732a1.372,1.372,0,0,0-1.377-.071,1.354,1.354,0,0,0-.706,1.165v9.605A1.357,1.357,0,0,0,40.142,44.694Z" transform="translate(-39.4 -32.572)" fill="#f6be00"/>
    </g>
  </g>
</svg>
