<svg xmlns="http://www.w3.org/2000/svg" width="17.84" height="14.49" viewBox="0 0 17.84 14.49">
  <path id="Icon_awesome-twitter" data-name="Icon awesome-twitter" d="M16.007,6.992c.011.158.011.317.011.475a10.332,10.332,0,0,1-10.4,10.4A10.333,10.333,0,0,1,0,16.229a7.564,7.564,0,0,0,.883.045,7.323,7.323,0,0,0,4.539-1.562A3.663,3.663,0,0,1,2,12.176a4.611,4.611,0,0,0,.691.057,3.867,3.867,0,0,0,.962-.124A3.657,3.657,0,0,1,.724,8.52V8.475a3.682,3.682,0,0,0,1.653.464,3.662,3.662,0,0,1-1.132-4.89A10.393,10.393,0,0,0,8.784,7.875a4.128,4.128,0,0,1-.091-.838,3.66,3.66,0,0,1,6.328-2.5,7.2,7.2,0,0,0,2.321-.883,3.647,3.647,0,0,1-1.607,2.015A7.33,7.33,0,0,0,17.84,5.1a7.86,7.86,0,0,1-1.834,1.89Z" transform="translate(0 -3.381)" fill="#1E8FE6"/>
</svg>
