<svg xmlns="http://www.w3.org/2000/svg" xmlns:xlink="http://www.w3.org/1999/xlink" width="60.357" height="60.357" viewBox="0 0 60.357 60.357">
  <defs>
    <filter id="Path_3376" x="0" y="0" width="60.357" height="60.357" filterUnits="userSpaceOnUse">
      <feOffset dy="1" input="SourceAlpha"/>
      <feGaussianBlur stdDeviation="3" result="blur"/>
      <feFlood flood-opacity="0.161"/>
      <feComposite operator="in" in2="blur"/>
      <feComposite in="SourceGraphic"/>
    </filter>
  </defs>
  <g id="Group_2943" data-name="Group 2943" transform="translate(9 8)">
    <g transform="matrix(1, 0, 0, 1, -9, -8)" filter="url(#Path_3376)">
      <path id="Path_3376-2" data-name="Path 3376" d="M21.178,0A21.178,21.178,0,1,1,0,21.178,21.178,21.178,0,0,1,21.178,0Z" transform="translate(9 8)" fill="#5da9dd"/>
    </g>
    <path id="Twitter_Icon" data-name="Twitter Icon" d="M133.263,3833.291a10.553,10.553,0,0,1-3.094.876,5.553,5.553,0,0,0,2.368-3.076,10.59,10.59,0,0,1-3.421,1.348,5.3,5.3,0,0,0-3.933-1.757,5.477,5.477,0,0,0-5.388,5.562,5.782,5.782,0,0,0,.14,1.269,15.141,15.141,0,0,1-11.1-5.812,5.676,5.676,0,0,0-.729,2.8,5.608,5.608,0,0,0,2.4,4.629,5.261,5.261,0,0,1-2.44-.7v.071a5.524,5.524,0,0,0,4.322,5.453,5.231,5.231,0,0,1-1.42.2,5.179,5.179,0,0,1-1.014-.1,5.415,5.415,0,0,0,5.033,3.862,10.641,10.641,0,0,1-7.977,2.3,14.914,14.914,0,0,0,8.259,2.5c9.91,0,15.329-8.475,15.329-15.823q0-.362-.015-.718a11.172,11.172,0,0,0,2.688-2.879Z" transform="translate(-98.715 -3820.554)" fill="#fff"/>
  </g>
</svg>
