<svg xmlns="http://www.w3.org/2000/svg" width="19.03" height="13.38" viewBox="0 0 19.03 13.38">
  <path id="Icon_awesome-youtube" data-name="Icon awesome-youtube" d="M19.682,6.594A2.391,2.391,0,0,0,18,4.9a56.507,56.507,0,0,0-7.435-.4,56.508,56.508,0,0,0-7.435.4A2.391,2.391,0,0,0,1.448,6.594a25.084,25.084,0,0,0-.4,4.61,25.084,25.084,0,0,0,.4,4.61A2.356,2.356,0,0,0,3.13,17.48a56.508,56.508,0,0,0,7.435.4A56.507,56.507,0,0,0,18,17.48a2.355,2.355,0,0,0,1.682-1.666,25.084,25.084,0,0,0,.4-4.61,25.084,25.084,0,0,0-.4-4.61ZM8.619,14.033V8.374l4.974,2.83L8.619,14.033Z" transform="translate(-1.05 -4.5)" fill="#FF0000"/>
</svg>
