<?xml version="1.0" standalone="no"?>
<!DOCTYPE svg PUBLIC "-//W3C//DTD SVG 20010904//EN"
 "http://www.w3.org/TR/2001/REC-SVG-20010904/DTD/svg10.dtd">
<svg version="1.0" xmlns="http://www.w3.org/2000/svg"
 width="256.000000pt" height="256.000000pt" viewBox="0 0 256.000000 256.000000"
 preserveAspectRatio="xMidYMid meet">
<metadata>
Created by potrace 1.14, written by Peter Selinger 2001-2017
</metadata>
<g transform="translate(0.000000,256.000000) scale(0.100000,-0.100000)"
fill="#000000" stroke="none">
<path d="M1670 2503 c-53 -9 -167 -73 -213 -120 -48 -48 -111 -158 -101 -174
3 -5 1 -9 -3 -9 -11 0 -12 -10 -13 -150 -2 -154 -3 -148 21 -155 37 -12 44 10
49 149 5 124 7 136 38 199 45 92 137 165 229 184 39 8 136 10 148 4 6 -3 15
-6 22 -7 29 -5 123 -54 123 -65 0 -7 3 -10 6 -7 7 8 54 -36 54 -51 0 -6 4 -11
9 -11 4 0 21 -28 37 -62 l28 -63 3 -359 c2 -227 6 -363 13 -370 20 -20 49 -17
55 7 3 12 5 184 3 382 l-3 360 -28 66 c-44 105 -139 195 -248 235 -42 16 -176
25 -229 17z"/>
<path d="M1338 1830 c-4 -44 15 -72 42 -62 21 7 30 23 30 53 0 31 -17 49 -46
49 -18 0 -23 -7 -26 -40z"/>
<path d="M1350 1724 c-10 -11 -13 -77 -13 -275 1 -143 4 -263 7 -267 4 -3 14
-7 23 -8 41 -6 43 8 43 277 0 221 -2 260 -16 273 -19 20 -28 20 -44 0z"/>
<path d="M2115 1363 c-10 -23 -7 -125 4 -136 5 -5 19 -7 32 -5 22 3 24 8 27
66 3 67 -7 92 -38 92 -10 0 -21 -8 -25 -17z"/>
<path d="M1458 1306 c-10 -10 -14 -37 -12 -97 1 -46 2 -87 3 -91 2 -13 48 -9
59 5 16 21 13 164 -4 182 -19 19 -29 19 -46 1z"/>
<path d="M1787 1306 c-9 -10 -13 -37 -12 -93 2 -86 7 -103 34 -103 32 0 41 22
41 105 0 79 -9 105 -36 105 -7 0 -19 -6 -27 -14z"/>
<path d="M1898 1273 c-23 -26 -21 -549 2 -563 21 -13 36 -12 47 3 12 15 12
546 0 565 -11 17 -31 15 -49 -5z"/>
<path d="M1672 1178 c-14 -14 -17 -265 -3 -287 6 -9 18 -11 35 -7 l26 6 0 144
c0 122 -2 145 -16 150 -22 8 -28 8 -42 -6z"/>
<path d="M2114 1179 c-10 -16 -5 -172 6 -183 5 -5 20 -6 34 -2 25 6 26 9 26
85 0 44 -3 86 -6 95 -7 18 -49 22 -60 5z"/>
<path d="M1566 1127 c-14 -10 -16 -26 -14 -102 3 -85 4 -90 26 -93 38 -6 49
16 47 100 -1 46 -7 83 -15 93 -15 18 -21 19 -44 2z"/>
<path d="M1349 1114 c-9 -11 -12 -43 -11 -106 2 -99 5 -108 31 -108 33 0 41
22 41 115 0 89 -8 115 -36 115 -6 0 -18 -7 -25 -16z"/>
<path d="M1460 1082 c-22 -10 -22 -258 0 -272 20 -13 26 -12 43 4 11 11 14 43
15 128 0 139 -9 162 -58 140z"/>
<path d="M1794 1075 c-17 -11 -20 -25 -19 -92 1 -86 7 -103 34 -103 33 0 41
22 41 107 0 70 -3 84 -18 92 -14 7 -25 6 -38 -4z"/>
<path d="M2006 1054 c-12 -11 -16 -35 -16 -89 0 -54 4 -78 16 -89 20 -20 29
-20 49 0 13 13 16 34 14 98 -1 46 -7 84 -13 88 -17 12 -33 9 -50 -8z"/>
<path d="M2117 929 c-15 -9 -17 -27 -17 -133 0 -124 6 -145 38 -140 6 1 17 2
22 3 6 1 10 52 10 131 0 114 -2 130 -18 139 -11 6 -24 6 -35 0z"/>
<path d="M1562 908 c-19 -19 -17 -422 3 -438 14 -11 54 -6 56 8 1 4 2 99 3
211 1 192 0 204 -19 217 -24 17 -28 17 -43 2z"/>
<path d="M1351 851 c-10 -6 -14 -35 -15 -104 -1 -81 2 -97 17 -106 12 -8 23
-8 37 -1 18 9 20 21 20 103 0 108 -15 136 -59 108z"/>
<path d="M1666 845 c-3 -9 -6 -99 -6 -200 0 -154 2 -185 16 -196 11 -9 20 -10
32 -2 15 9 17 34 17 209 l0 199 -26 3 c-17 2 -29 -3 -33 -13z"/>
<path d="M1787 836 c-9 -10 -12 -63 -11 -202 1 -104 2 -192 3 -196 1 -4 10
-12 20 -18 15 -7 23 -6 35 6 13 13 16 46 16 207 0 106 -4 197 -8 202 -10 15
-41 15 -55 1z"/>
<path d="M2006 834 c-13 -12 -16 -40 -16 -143 0 -111 2 -130 18 -144 47 -43
62 -8 62 143 0 67 -5 130 -10 141 -13 23 -33 24 -54 3z"/>
<path d="M559 752 c-29 -3 -28 0 -91 -162 -60 -150 -61 -154 -62 -162 -1 -3
-4 -10 -8 -14 -15 -14 -8 -63 10 -73 26 -14 47 3 66 54 l18 45 82 0 83 0 18
-45 c20 -55 43 -70 73 -49 27 19 23 37 -33 160 -14 30 -25 61 -25 69 0 7 -5
17 -10 20 -6 4 -8 11 -5 16 4 5 2 9 -3 9 -5 0 -9 6 -9 13 -1 26 -43 106 -60
114 -10 5 -30 7 -44 5z m37 -147 c1 -5 9 -30 18 -54 9 -24 16 -45 16 -47 0 -2
-27 -2 -59 -2 -60 1 -66 8 -41 43 4 6 10 22 14 37 3 15 11 40 17 55 l11 28 11
-25 c5 -14 11 -29 13 -35z"/>
<path d="M820 752 c-8 -3 -18 -10 -22 -16 -4 -6 -8 -90 -8 -187 0 -156 2 -179
18 -199 16 -19 22 -21 40 -11 19 10 22 21 23 74 0 59 0 300 -1 323 0 14 -29
23 -50 16z"/>
<path d="M1026 735 c-52 -26 -94 -80 -102 -130 -9 -61 -10 -106 -2 -111 5 -3
8 -15 8 -27 0 -28 52 -93 92 -113 47 -24 138 -22 180 4 49 31 67 53 73 94 5
29 2 39 -12 47 -25 13 -47 -1 -63 -38 -7 -17 -21 -33 -31 -36 -10 -4 -19 -10
-19 -14 0 -6 -48 -7 -82 -2 -16 2 -53 48 -58 71 -17 87 6 172 51 195 60 31
105 15 150 -54 12 -19 21 -23 41 -18 21 6 26 12 24 34 -3 38 -20 67 -51 87
-53 35 -143 40 -199 11z"/>
<path d="M1453 747 c-5 -6 -9 -54 -9 -106 1 -78 4 -96 19 -105 12 -8 22 -8 35
0 13 9 17 27 19 85 3 109 -2 134 -31 137 -13 1 -28 -4 -33 -11z"/>
<path d="M1894 651 c-11 -24 -13 -141 -3 -168 6 -16 17 -23 34 -23 30 0 27 -7
30 103 2 56 -1 90 -9 94 -20 13 -45 10 -52 -6z"/>
<path d="M1305 392 c-10 -10 -5 -50 8 -59 7 -6 177 -10 443 -9 455 1 465 2
461 47 -1 10 -4 20 -7 21 -14 4 -901 4 -905 0z"/>
<path d="M410 240 c-8 -5 -12 -10 -7 -10 4 0 0 -17 -9 -37 -9 -21 -18 -44 -21
-50 -3 -7 2 -13 11 -13 9 0 16 6 16 14 0 17 34 14 56 -5 23 -19 26 -4 8 42
-22 57 -35 71 -54 59z m23 -50 c3 -13 0 -20 -8 -20 -11 0 -13 14 -6 38 3 8 9
-1 14 -18z"/>
<path d="M677 243 c-3 -4 -4 -23 -2 -42 3 -34 3 -34 -14 -13 -14 19 -25 21
-93 20 l-76 -2 -4 -48 c-3 -54 -1 -68 14 -68 5 0 7 9 3 19 -5 16 0 20 27 23
27 2 34 8 39 33 5 24 7 20 6 -18 0 -52 10 -74 20 -39 3 15 13 22 29 22 13 0
28 8 33 18 10 16 10 16 11 0 0 -13 8 -18 30 -18 28 0 30 2 30 40 0 44 -25 58
-33 18 -2 -13 -4 -6 -4 15 0 37 -7 55 -16 40z m-127 -78 c0 -7 -7 -16 -15 -19
-18 -7 -30 16 -21 40 5 13 9 14 21 4 8 -7 15 -18 15 -25z m88 1 c-4 -26 -30
-28 -34 -2 -4 27 4 36 22 29 8 -3 14 -15 12 -27z"/>
<path d="M890 227 c0 -21 -4 -24 -21 -20 -14 4 -26 0 -35 -11 -10 -14 -14 -15
-21 -3 -24 41 -77 20 -71 -28 2 -25 8 -31 33 -33 19 -3 33 2 42 14 12 16 13
16 13 1 0 -13 9 -17 40 -15 l40 1 0 53 c0 29 -4 56 -10 59 -6 3 -10 -5 -10
-18z m-97 -41 c4 -9 -1 -17 -11 -19 -11 -3 -8 -5 8 -6 22 -1 23 -3 7 -12 -23
-14 -37 -3 -35 26 3 27 23 34 31 11z m87 -16 c0 -27 -17 -34 -29 -12 -7 13 -7
22 1 30 15 15 28 6 28 -18z"/>
<path d="M1486 241 c-3 -5 1 -11 9 -14 9 -4 12 -1 8 9 -6 16 -10 17 -17 5z"/>
<path d="M1772 242 c-47 -8 -52 -97 -6 -108 33 -8 74 3 74 21 0 18 -1 18 -36
1 -34 -18 -44 -13 -44 24 0 38 28 55 53 33 18 -17 34 -12 22 6 -10 17 -38 27
-63 23z"/>
<path d="M708 233 c7 -3 16 -2 19 1 4 3 -2 6 -13 5 -11 0 -14 -3 -6 -6z"/>
<path d="M951 185 c-1 -43 2 -55 14 -55 12 0 15 12 15 55 0 39 -4 55 -13 55
-10 0 -14 -16 -16 -55z"/>
<path d="M1428 223 c-3 -10 -3 -35 0 -55 3 -29 9 -38 23 -38 10 0 19 5 19 10
0 6 -4 10 -8 10 -12 0 -11 32 1 48 6 8 6 12 -2 12 -6 0 -11 7 -11 15 0 21 -17
19 -22 -2z"/>
<path d="M2027 233 c-3 -7 -2 -68 2 -94 2 -11 121 -9 121 1 0 6 -11 8 -24 4
-13 -3 -27 -1 -30 5 -5 7 4 11 23 11 18 0 31 5 31 13 0 25 -18 39 -46 35 -22
-2 -30 -9 -32 -28 -6 -41 -24 -50 -21 -10 3 51 0 70 -10 70 -6 0 -12 -3 -14
-7z m101 -51 c2 -7 -6 -12 -17 -12 -21 0 -27 11 -14 24 9 9 26 2 31 -12z"/>
<path d="M1353 205 c-10 -7 -14 -17 -10 -21 4 -5 12 -2 17 6 7 12 12 12 21 3
13 -13 13 -12 -36 -28 -31 -9 -4 -35 37 -35 33 0 39 3 34 16 -3 9 -6 26 -6 39
0 28 -31 39 -57 20z m32 -55 c-3 -5 -10 -10 -16 -10 -5 0 -9 5 -9 10 0 6 7 10
16 10 8 0 12 -4 9 -10z"/>
<path d="M990 171 c0 -29 4 -41 15 -41 9 0 13 9 12 28 -1 18 3 27 13 27 9 0
16 -11 18 -27 5 -43 24 -33 20 10 -3 35 -5 37 -40 40 l-38 3 0 -40z"/>
<path d="M1080 171 c0 -29 4 -41 14 -41 9 0 13 10 12 30 -2 23 2 30 13 28 9
-2 17 -10 17 -18 1 -8 2 -21 3 -27 0 -7 6 -13 12 -13 6 0 9 16 7 38 -3 35 -5
37 -40 40 l-38 3 0 -40z"/>
<path d="M1174 196 c-3 -8 -4 -25 -2 -38 2 -19 9 -23 38 -23 33 0 35 2 35 35
0 32 -3 35 -33 38 -21 2 -34 -2 -38 -12z m56 -26 c0 -23 -29 -35 -36 -15 -4 8
-4 22 0 30 7 20 36 8 36 -15z"/>
<path d="M1264 173 c17 -49 40 -54 55 -12 14 39 14 49 1 49 -5 0 -12 -11 -16
-25 -5 -21 -27 -38 -22 -17 2 12 -14 42 -23 42 -4 0 -2 -17 5 -37z"/>
<path d="M1480 170 c0 -29 4 -40 15 -40 11 0 15 11 15 40 0 29 -4 40 -15 40
-11 0 -15 -11 -15 -40z"/>
<path d="M1532 194 c-5 -9 -7 -27 -4 -40 4 -20 10 -24 38 -24 28 0 35 5 40 25
4 15 1 32 -6 40 -16 20 -57 19 -68 -1z m58 -29 c0 -18 -25 -26 -38 -13 -8 8
-8 17 -1 30 8 15 13 17 25 7 8 -6 14 -17 14 -24z"/>
<path d="M1615 168 c0 -21 4 -37 10 -35 10 4 11 8 14 42 2 30 31 16 31 -15 0
-19 5 -30 14 -30 13 0 14 9 7 72 -1 5 -18 7 -39 6 -37 -1 -37 -2 -37 -40z"/>
<path d="M1852 194 c-5 -9 -7 -27 -4 -40 4 -20 10 -24 38 -24 28 0 35 5 40 25
4 15 1 32 -6 40 -16 20 -57 19 -68 -1z m46 -12 c2 -7 -3 -12 -12 -12 -9 0 -16
7 -16 16 0 17 22 14 28 -4z m16 -27 c-4 -8 -15 -15 -25 -15 -27 0 -24 18 4 23
12 2 23 5 24 6 1 0 0 -6 -3 -14z"/>
<path d="M1940 170 c0 -26 4 -39 10 -35 6 4 10 16 8 28 -2 14 3 23 15 25 13 3
17 -3 17 -27 0 -17 5 -31 11 -31 6 0 9 16 7 38 -3 34 -6 37 -35 40 -32 3 -33
3 -33 -38z"/>
<path d="M2160 169 c0 -21 5 -39 10 -39 6 0 10 11 10 25 0 17 7 29 23 35 25
10 24 11 -15 16 -26 3 -28 1 -28 -37z"/>
</g>
</svg>
